<svg width="18" height="14" viewBox="0 0 18 14" fill="none" xmlns="http://www.w3.org/2000/svg">

<path d="M11.0024 0.25615C10.8438 0.0921125 10.6287 -3.8147e-05 10.4044 -3.8147e-05C10.1801 -3.8147e-05 9.96506 0.0921125 9.80645 0.25615L5.61989 4.5874L1.43334 0.25615C1.27382 0.0967617 1.06018 0.00856638 0.83842 0.01056C0.616662 0.0125537 0.404532 0.104577 0.24772 0.266809C0.0909071 0.429041 0.0019598 0.648502 3.24249e-05 0.877924C-0.001894 1.10735 0.083354 1.32837 0.237418 1.4934L5.02194 6.44327C5.18054 6.60731 5.39563 6.69946 5.61989 6.69946C5.84416 6.69946 6.05925 6.60731 6.21785 6.44327L11.0024 1.4934C11.1609 1.32931 11.25 1.10679 11.25 0.874775C11.25 0.642756 11.1609 0.420237 11.0024 0.25615Z" fill="#55514E"/>

</svg>