<svg width="24" height="24" viewBox="0 0 34 34" fill="none" xmlns="http://www.w3.org/2000/svg">
  <path d="M27.5747 5.62333C26.1236 4.17226 24.0745 3.94397 21.6551 3.94397H10.5559C8.16557 3.94397 6.11646 4.17165 4.66479 5.62333C3.21371 7.0744 3 9.10954 3 11.4859V22.4715C3 24.905 3.21311 26.9255 4.66479 28.3766C6.11586 29.8277 8.16557 30.056 10.5984 30.056H21.6551C24.0745 30.056 26.1236 29.8283 27.5747 28.3766C29.0264 26.9255 29.2395 24.905 29.2395 22.4715V11.5284C29.2395 9.09497 29.0264 7.05983 27.5747 5.62333ZM26.9487 11.1301V22.8559C26.9487 24.3355 26.7636 25.8436 25.9105 26.7118C25.0423 27.5655 23.505 27.7646 22.0394 27.7646H10.2001C8.73446 27.7646 7.19779 27.5655 6.34414 26.7118C5.47593 25.8436 5.29075 24.3355 5.29075 22.8553V11.1732C5.29075 9.67965 5.47593 8.14236 6.32957 7.28872C7.19779 6.42051 8.74843 6.23593 10.2426 6.23593H22.0394C23.505 6.23593 25.0417 6.43508 25.9099 7.28872C26.7636 8.15693 26.9487 9.66447 26.9487 11.1301ZM16.1198 24.5917C16.6893 24.5917 17.1446 24.1503 17.1446 23.5814V18.0175H22.7085C23.2774 18.0175 23.7327 17.5336 23.7327 17.0073C23.7327 16.4523 23.2774 15.9824 22.7085 15.9824H17.1446V10.4046C17.1446 9.83508 16.6893 9.39429 16.1198 9.39429C15.9865 9.39233 15.8543 9.41712 15.7308 9.46719C15.6074 9.51727 15.4952 9.59161 15.401 9.68582C15.3068 9.78003 15.2324 9.89218 15.1824 10.0156C15.1323 10.1391 15.1075 10.2714 15.1095 10.4046V15.9824H9.54561C8.97611 15.9824 8.52075 16.4523 8.52075 17.0073C8.52075 17.5336 8.97611 18.0175 9.54561 18.0175H15.1095V23.5814C15.1095 24.1503 15.5509 24.5917 16.1198 24.5917Z" fill="rgba(255, 255, 255, 0.8)"/>
</svg>