<svg width="24" height="24" viewBox="0 0 32 32" fill="none" xmlns="http://www.w3.org/2000/svg">
  <path d="M22.7071 9.29301C22.5759 9.16168 22.4107 9.06948 22.23 9.02674C22.0493 8.98399 21.8603 8.9924 21.6841 9.05101L12.6841 12.051C12.5367 12.1001 12.4028 12.1829 12.2929 12.2928C12.183 12.4027 12.1003 12.5366 12.0511 12.684L9.05112 21.684C8.99236 21.8602 8.98383 22.0493 9.02649 22.2301C9.06915 22.4108 9.16131 22.5761 9.29265 22.7075C9.42398 22.8388 9.5893 22.931 9.77007 22.9736C9.95084 23.0163 10.1399 23.0078 10.3161 22.949L19.3161 19.949C19.4635 19.8999 19.5975 19.8171 19.7073 19.7072C19.8172 19.5973 19.9 19.4634 19.9491 19.316L22.9491 10.316C23.0077 10.1398 23.0161 9.95082 22.9734 9.77014C22.9306 9.58946 22.8384 9.42425 22.7071 9.29301ZM11.5811 20.42L13.7911 13.792L18.2101 18.211L11.5811 20.42Z" fill="rgba(255, 255, 255, 0.8)"/>
  <path d="M15 30C12.2311 30 9.52431 29.1789 7.22202 27.6406C4.91973 26.1022 3.12532 23.9157 2.06569 21.3576C1.00607 18.7994 0.728819 15.9845 1.26901 13.2687C1.80921 10.553 3.14258 8.05845 5.10051 6.10051C7.05845 4.14258 9.55301 2.80921 12.2687 2.26901C14.9845 1.72882 17.7994 2.00607 20.3576 3.06569C22.9157 4.12532 25.1022 5.91973 26.6406 8.22202C28.1789 10.5243 29 13.2311 29 16C28.9958 19.7117 27.5194 23.2702 24.8948 25.8948C22.2702 28.5194 18.7117 29.9958 15 30ZM15 4.00001C12.6266 4.00001 10.3066 4.70379 8.33316 6.02237C6.35977 7.34095 4.8217 9.21509 3.91345 11.4078C3.0052 13.6005 2.76756 16.0133 3.23058 18.3411C3.69361 20.6689 4.83649 22.8071 6.51472 24.4853C8.19296 26.1635 10.3312 27.3064 12.6589 27.7694C14.9867 28.2325 17.3995 27.9948 19.5922 27.0866C21.7849 26.1783 23.6591 24.6402 24.9776 22.6668C26.2962 20.6935 27 18.3734 27 16C26.9963 12.8185 25.7308 9.76845 23.4812 7.51882C21.2316 5.26918 18.1815 4.00371 15 4.00001Z" fill="rgba(255, 255, 255, 0.8)"/>
</svg>