<svg width="28" height="28" viewBox="0 0 32 32" fill="none" xmlns="http://www.w3.org/2000/svg">

<path d="M17.864 1.45402C17.378 -0.485977 14.624 -0.485977 14.136 1.45402L13.994 2.02602C13.9109 2.35844 13.7404 2.66256 13.5001 2.90684C13.2598 3.15111 12.9586 3.32664 12.6276 3.41521C12.2966 3.50377 11.9479 3.50215 11.6178 3.4105C11.2876 3.31886 10.988 3.14053 10.75 2.89402L10.34 2.47202C8.94999 1.03402 6.56399 2.41202 7.11399 4.33402L7.27399 4.90202C7.36801 5.23111 7.37235 5.57936 7.28656 5.91069C7.20078 6.24202 7.02798 6.5444 6.78607 6.78651C6.54416 7.02863 6.24193 7.20168 5.91067 7.28774C5.57941 7.37381 5.23116 7.36976 4.90199 7.27602L4.33399 7.11402C2.41399 6.56402 1.03399 8.95002 2.47199 10.34L2.89399 10.75C3.1405 10.988 3.31883 11.2876 3.41047 11.6178C3.50212 11.9479 3.50374 12.2966 3.41518 12.6276C3.32661 12.9586 3.15108 13.2599 2.90681 13.5001C2.66253 13.7404 2.35841 13.9109 2.02599 13.994L1.45399 14.136C-0.486007 14.622 -0.486007 17.376 1.45399 17.864L2.02599 18.006C2.35841 18.0891 2.66253 18.2596 2.90681 18.4999C3.15108 18.7402 3.32661 19.0414 3.41518 19.3724C3.50374 19.7034 3.50212 20.0521 3.41047 20.3823C3.31883 20.7124 3.1405 21.012 2.89399 21.25L2.47199 21.66C1.03399 23.05 2.41199 25.436 4.33399 24.886L4.90199 24.726C5.23129 24.6318 5.57979 24.6274 5.91136 24.7133C6.24292 24.7992 6.54549 24.9722 6.78768 25.2143C7.02986 25.4565 7.20286 25.7591 7.28872 26.0907C7.37458 26.4222 7.37019 26.7707 7.27599 27.1L7.11399 27.666C6.56399 29.586 8.94999 30.966 10.34 29.528L10.75 29.106C10.988 28.8595 11.2876 28.6812 11.6178 28.5895C11.9479 28.4979 12.2966 28.4963 12.6276 28.5848C12.9586 28.6734 13.2598 28.8489 13.5001 29.0932C13.7404 29.3375 13.9109 29.6416 13.994 29.974L14.136 30.546C14.622 32.486 17.376 32.486 17.864 30.546L18.006 29.974C18.0891 29.6416 18.2596 29.3375 18.4999 29.0932C18.7402 28.8489 19.0414 28.6734 19.3724 28.5848C19.7034 28.4963 20.0521 28.4979 20.3822 28.5895C20.7124 28.6812 21.012 28.8595 21.25 29.106L21.66 29.528C23.05 30.966 25.436 29.588 24.886 27.666L24.726 27.098C24.6318 26.7687 24.6274 26.4202 24.7133 26.0887C24.7991 25.7571 24.9721 25.4545 25.2143 25.2123C25.4565 24.9702 25.7591 24.7972 26.0906 24.7113C26.4222 24.6254 26.7707 24.6298 27.1 24.724L27.666 24.886C29.586 25.436 30.966 23.05 29.528 21.66L29.106 21.25C28.8595 21.012 28.6812 20.7124 28.5895 20.3823C28.4979 20.0521 28.4962 19.7034 28.5848 19.3724C28.6734 19.0414 28.8489 18.7402 29.0932 18.4999C29.3375 18.2596 29.6416 18.0891 29.974 18.006L30.546 17.864C32.486 17.378 32.486 14.624 30.546 14.136L29.974 13.994C29.6416 13.9109 29.3375 13.7404 29.0932 13.5001C28.8489 13.2599 28.6734 12.9586 28.5848 12.6276C28.4962 12.2966 28.4979 11.9479 28.5895 11.6178C28.6812 11.2876 28.8595 10.988 29.106 10.75L29.528 10.34C30.966 8.95002 29.588 6.56402 27.666 7.11402L27.098 7.27402C26.7689 7.36804 26.4207 7.37238 26.0893 7.28659C25.758 7.20081 25.4556 7.02801 25.2135 6.7861C24.9714 6.54419 24.7983 6.24196 24.7123 5.9107C24.6262 5.57944 24.6303 5.23119 24.724 4.90202L24.886 4.33402C25.436 2.41402 23.05 1.03402 21.66 2.47202L21.25 2.89402C21.012 3.14053 20.7124 3.31886 20.3822 3.4105C20.0521 3.50215 19.7034 3.50377 19.3724 3.41521C19.0414 3.32664 18.7402 3.15111 18.4999 2.90684C18.2596 2.66256 18.0891 2.35844 18.006 2.02602L17.864 1.45402ZM16 25.994C14.6755 26.0128 13.3606 25.7681 12.1315 25.2742C10.9024 24.7803 9.78376 24.0471 8.84053 23.1171C7.8973 22.1871 7.14831 21.0789 6.63709 19.857C6.12586 18.635 5.8626 17.3236 5.8626 15.999C5.8626 14.6744 6.12586 13.363 6.63709 12.1411C7.14831 10.9191 7.8973 9.81095 8.84053 8.88097C9.78376 7.95099 10.9024 7.21775 12.1315 6.72386C13.3606 6.22997 14.6755 5.98529 16 6.00402C18.6511 6.00402 21.1936 7.05717 23.0682 8.93178C24.9428 10.8064 25.996 13.3489 25.996 16C25.996 18.6511 24.9428 21.1936 23.0682 23.0683C21.1936 24.9429 18.6511 25.996 16 25.996V25.994Z" fill="rgba(255, 255, 255, 0.8)"/>

</svg>