<svg width="24" height="24" viewBox="0 0 32 32" fill="none" xmlns="http://www.w3.org/2000/svg">
  <path d="M15.81 2.29682C15.5839 2.10449 15.2968 1.99887 15 1.99887C14.7032 1.99887 14.4161 2.10449 14.19 2.29682L4.44 10.5848C4.30195 10.7023 4.1911 10.8483 4.11512 11.0129C4.03914 11.1775 3.99986 11.3566 4 11.5378V24.4968C4 24.6294 4.05268 24.7566 4.14645 24.8504C4.24021 24.9441 4.36739 24.9968 4.5 24.9968H9.5C9.63261 24.9968 9.75979 24.9441 9.85355 24.8504C9.94732 24.7566 10 24.6294 10 24.4968V17.4968C10 16.8338 10.2634 16.1979 10.7322 15.7291C11.2011 15.2602 11.837 14.9968 12.5 14.9968H17.504C17.8323 14.9968 18.1574 15.0615 18.4607 15.1871C18.764 15.3128 19.0396 15.4969 19.2718 15.7291C19.5039 15.9612 19.6881 16.2368 19.8137 16.5401C19.9393 16.8434 20.004 17.1685 20.004 17.4968V24.4968C20.004 24.6294 20.0567 24.7566 20.1504 24.8504C20.2442 24.9441 20.3714 24.9968 20.504 24.9968H25.5C25.6326 24.9968 25.7598 24.9441 25.8536 24.8504C25.9473 24.7566 26 24.6294 26 24.4968V11.5368C26 11.3557 25.9606 11.1768 25.8847 11.0124C25.8087 10.8481 25.6979 10.7022 25.56 10.5848L15.81 2.29682ZM12.895 0.773818C13.4826 0.274281 14.2287 0 15 0C15.7713 0 16.5174 0.274281 17.105 0.773818L26.855 9.06082C27.2139 9.3659 27.5021 9.74534 27.6999 10.1729C27.8976 10.6004 28 11.0658 28 11.5368V24.4968C28 25.1599 27.7366 25.7957 27.2678 26.2646C26.7989 26.7334 26.163 26.9968 25.5 26.9968H20.504C19.841 26.9968 19.2051 26.7334 18.7362 26.2646C18.2674 25.7957 18.004 25.1599 18.004 24.4968V17.4968C18.004 17.3642 17.9513 17.237 17.8576 17.1433C17.7638 17.0495 17.6366 16.9968 17.504 16.9968H12.5C12.3674 16.9968 12.2402 17.0495 12.1464 17.1433C12.0527 17.237 12 17.3642 12 17.4968V24.4968C12 25.1599 11.7366 25.7957 11.2678 26.2646C10.7989 26.7334 10.163 26.9968 9.5 26.9968H4.5C3.83696 26.9968 3.20107 26.7334 2.73223 26.2646C2.26339 25.7957 2 25.1599 2 24.4968V11.5368C2.00003 11.0658 2.10244 10.6004 2.30014 10.1729C2.49785 9.74534 2.78612 9.3659 3.145 9.06082L12.895 0.773818Z" fill="rgba(255, 255, 255, 0.8)"/>
</svg>