<svg width="50" height="50" viewBox="0 0 50 50" fill="none" xmlns="http://www.w3.org/2000/svg">

<path d="M13.4534 3.33334C10.7925 3.33319 8.19124 4.12213 5.97871 5.60039C3.76617 7.07865 2.04171 9.17983 1.02339 11.6382C0.00507615 14.0966 -0.261346 16.8017 0.257818 19.4115C0.776983 22.0213 2.05841 24.4185 3.94005 26.3L23.8201 46.18C23.9749 46.3352 24.1588 46.4584 24.3613 46.5424C24.5638 46.6264 24.7808 46.6697 25.0001 46.6697C25.2193 46.6697 25.4364 46.6264 25.6388 46.5424C25.8413 46.4584 26.0252 46.3352 26.1801 46.18L46.0601 26.2967C48.5148 23.7601 49.8743 20.3604 49.8454 16.8307C49.8165 13.3009 48.4015 9.92391 45.9055 7.42791C43.4095 4.93191 40.0325 3.51688 36.5027 3.48797C32.973 3.45905 29.5733 4.81857 27.0367 7.27334L25.0001 9.30668L22.9667 7.27334C21.717 6.02371 20.2333 5.03256 18.6004 4.35653C16.9675 3.68049 15.2207 3.3328 13.4534 3.33334Z" fill="#FF0000"/>
</svg>
