<svg width="24" height="24" viewBox="0 0 34 34" fill="none" xmlns="http://www.w3.org/2000/svg">
  <path d="M26.4285 9.12335L15.5839 19.9679C15.9055 20.4284 16.1789 20.9256 16.3985 21.4526L19.1043 27.9679L26.4285 9.12335ZM13.6757 18.0597L24.5217 7.21369L5.67575 14.5379L12.191 17.2451C12.714 17.462 13.2118 17.7351 13.6757 18.0597ZM30.1345 6.92185L21.5963 28.8887C21.0579 30.277 19.5038 30.9896 18.1268 30.481C17.7914 30.3571 17.4852 30.1651 17.2275 29.9171C16.9699 29.6692 16.7662 29.3707 16.6294 29.0403L13.9236 22.525C13.3971 21.2554 12.3883 20.2465 11.1186 19.72L4.60192 17.0142C3.25042 16.4518 2.63275 14.8892 3.22492 13.5207C3.37012 13.1863 3.58006 12.884 3.84266 12.6311C4.10525 12.3782 4.41529 12.1798 4.75492 12.0474L26.7218 3.50627C27.1991 3.31392 27.7224 3.26618 28.2266 3.36901C28.7309 3.47183 29.1937 3.72067 29.5576 4.08456C29.9215 4.44844 30.1704 4.91131 30.2732 5.41554C30.376 5.91978 30.3283 6.44312 30.1359 6.92044L30.1345 6.92185Z" fill="rgba(255, 255, 255, 0.8)"/>
</svg>