<svg width="70" height="70" viewBox="0 0 100 100" fill="none" xmlns="http://www.w3.org/2000/svg">
  <circle cx="50" cy="50" r="48" stroke="#121212" stroke-width="3"/>
  <circle cx="49.5" cy="49.5" r="42" fill="#121212"/>
  <path fill-rule="evenodd" clip-rule="evenodd" d="M53.2083 53.2083V72.1667C53.2083 72.885 52.923 73.5738 52.4151 74.0817C51.9072 74.5897 51.2183 74.875 50.5 74.875C49.7817 74.875 49.0928 74.5897 48.5849 74.0817C48.077 73.5738 47.7917 72.885 47.7917 72.1667V53.2083H28.8333C28.115 53.2083 27.4262 52.923 26.9183 52.4151C26.4103 51.9072 26.125 51.2183 26.125 50.5C26.125 49.7817 26.4103 49.0928 26.9183 48.5849C27.4262 48.077 28.115 47.7917 28.8333 47.7917H47.7917V28.8333C47.7917 28.115 48.077 27.4262 48.5849 26.9183C49.0928 26.4103 49.7817 26.125 50.5 26.125C51.2183 26.125 51.9072 26.4103 52.4151 26.9183C52.923 27.4262 53.2083 28.115 53.2083 28.8333V47.7917H72.1667C72.885 47.7917 73.5738 48.077 74.0817 48.5849C74.5897 49.0928 74.875 49.7817 74.875 50.5C74.875 51.2183 74.5897 51.9072 74.0817 52.4151C73.5738 52.923 72.885 53.2083 72.1667 53.2083H53.2083Z" fill="#747474"/>
</svg>