<svg width="24" height="24" viewBox="0 0 32 32" fill="none" xmlns="http://www.w3.org/2000/svg">
  <path d="M28.65 4.01878C25.0375 0.981277 19.4563 1.43753 16 4.95628C12.5438 1.43753 6.96251 0.975027 3.35001 4.01878C-1.34999 7.97503 -0.662493 14.425 2.68751 17.8438L13.65 29.0125C14.275 29.65 15.1125 30.0063 16 30.0063C16.8938 30.0063 17.725 29.6563 18.35 29.0188L29.3125 17.85C32.6563 14.4313 33.3563 7.98128 28.65 4.01878ZM27.175 15.7375L16.2125 26.9063C16.0625 27.0563 15.9375 27.0563 15.7875 26.9063L4.82501 15.7375C2.54376 13.4125 2.08126 9.01253 5.28126 6.31878C7.71251 4.27503 11.4625 4.58128 13.8125 6.97503L16 9.20628L18.1875 6.97503C20.55 4.56878 24.3 4.27503 26.7188 6.31253C29.9125 9.00628 29.4375 13.4313 27.175 15.7375Z" fill="rgba(255, 255, 255, 0.8)"/>
</svg>