<svg width="15" height="15" viewBox="0 0 15 15" fill="none" xmlns="http://www.w3.org/2000/svg">
<path d="M12.5 1.25H2.5C1.8125 1.25 1.25 1.8125 1.25 2.5V12.5C1.25 13.1875 1.8125 13.75 2.5 13.75H12.5C13.1875 13.75 13.75 13.1875 13.75 12.5V2.5C13.75 1.8125 13.1875 1.25 12.5 1.25ZM5 12.5H3.125C2.78125 12.5 2.5 12.2188 2.5 11.875V10H5V12.5ZM5 8.75H2.5V6.25H5V8.75ZM5 5H2.5V3.125C2.5 2.78125 2.78125 2.5 3.125 2.5H5V5ZM8.75 12.5H6.25V10H8.75V12.5ZM8.75 8.75H6.25V6.25H8.75V8.75ZM8.75 5H6.25V2.5H8.75V5ZM11.875 12.5H10V10H12.5V11.875C12.5 12.2188 12.2188 12.5 11.875 12.5ZM12.5 8.75H10V6.25H12.5V8.75ZM12.5 5H10V2.5H11.875C12.2188 2.5 12.5 2.78125 12.5 3.125V5Z" fill="rgba(255, 255, 255, 0.8)"/>
</svg>