<svg width="24" height="24" viewBox="0 0 32 32" fill="none" xmlns="http://www.w3.org/2000/svg">
  <path d="M9.20648 0H22.7935C25.3218 0 27.6221 1.03125 29.291 2.6875C30.9625 4.34635 32 6.63542 32 9.15104V22.8516C32 25.362 30.9625 27.6484 29.2962 29.3073L29.291 29.3125C27.6195 30.9714 25.3191 32 22.7961 32H9.20648C6.67562 32 4.37269 30.9688 2.70378 29.3125L2.6409 29.2422C1.0113 27.5911 0 25.3307 0 22.849V9.15104C0 6.63281 1.03488 4.34635 2.70378 2.6875C4.37269 1.02865 6.673 0 9.20648 0ZM23.9751 8.07813L23.9934 8.10677H29.6525C29.4246 6.6276 28.7146 5.29948 27.6928 4.28125C26.4352 3.03125 24.7008 2.25521 22.7935 2.25521H20.4696L23.9751 8.07813ZM21.3578 8.10677L17.834 2.25521H10.1051L13.6709 8.10677H21.3578ZM11.0326 8.10677L7.58474 2.44531C6.32455 2.7474 5.19535 3.39583 4.30719 4.28125C3.28541 5.29688 2.57803 6.6276 2.34747 8.10677H11.0326ZM29.7311 10.362H2.26887V22.8516C2.26887 24.7188 3.02604 26.4193 4.24955 27.6641L4.30719 27.7188C5.56476 28.9688 7.30178 29.7474 9.20648 29.7474H22.7935C24.7008 29.7474 26.4352 28.9714 27.6902 27.724L27.6954 27.7188C28.9504 26.4714 29.7311 24.7474 29.7311 22.8516V10.362ZM13.3486 14.3099L20.3779 18.8542C20.4906 18.9271 20.5928 19.0208 20.674 19.1354C20.9936 19.5964 20.8757 20.2292 20.412 20.5469L13.4115 24.6536C13.236 24.7969 13.0106 24.8828 12.7617 24.8828C12.1958 24.8828 11.7373 24.4271 11.7373 23.8646V15.1432H11.7426C11.7426 14.9427 11.8028 14.7396 11.926 14.5625C12.2509 14.1016 12.8875 13.9896 13.3486 14.3099Z" fill="rgba(255, 255, 255, 0.8)"/>
</svg>