<svg width="24" height="24" viewBox="0 0 32 32" fill="none" xmlns="http://www.w3.org/2000/svg">
  <path d="M27.0003 28L21.2096 22.2093M21.2096 22.2093C22.2001 21.2188 22.9858 20.0429 23.5219 18.7487C24.058 17.4545 24.3339 16.0674 24.3339 14.6666C24.3339 13.2658 24.058 11.8787 23.5219 10.5846C22.9858 9.2904 22.2001 8.11449 21.2096 7.12397C20.2191 6.13345 19.0432 5.34773 17.749 4.81167C16.4548 4.2756 15.0677 3.99969 13.6669 3.99969C12.2661 3.99969 10.8791 4.2756 9.58488 4.81167C8.29071 5.34773 7.11479 6.13345 6.12427 7.12397C4.12384 9.12441 3 11.8376 3 14.6666C3 17.4957 4.12384 20.2089 6.12427 22.2093C8.12471 24.2097 10.8379 25.3336 13.6669 25.3336C16.496 25.3336 19.2092 24.2097 21.2096 22.2093Z" stroke="white" stroke-width="2.5" stroke-linecap="round" stroke-linejoin="round"/>
</svg>