<svg width="18" height="18" viewBox="0 0 15 15" fill="none" xmlns="http://www.w3.org/2000/svg">

<path fill-rule="evenodd" clip-rule="evenodd" d="M10 5.625C10 6.28804 9.73661 6.92393 9.26777 7.39277C8.79893 7.86161 8.16304 8.125 7.5 8.125C6.83696 8.125 6.20107 7.86161 5.73223 7.39277C5.26339 6.92393 5 6.28804 5 5.625C5 4.96196 5.26339 4.32607 5.73223 3.85723C6.20107 3.38839 6.83696 3.125 7.5 3.125C8.16304 3.125 8.79893 3.38839 9.26777 3.85723C9.73661 4.32607 10 4.96196 10 5.625ZM8.75 5.625C8.75 5.95652 8.6183 6.27446 8.38388 6.50888C8.14946 6.7433 7.83152 6.875 7.5 6.875C7.16848 6.875 6.85054 6.7433 6.61612 6.50888C6.3817 6.27446 6.25 5.95652 6.25 5.625C6.25 5.29348 6.3817 4.97554 6.61612 4.74112C6.85054 4.5067 7.16848 4.375 7.5 4.375C7.83152 4.375 8.14946 4.5067 8.38388 4.74112C8.6183 4.97554 8.75 5.29348 8.75 5.625Z" fill="#363638"/>
<path fill-rule="evenodd" clip-rule="evenodd" d="M7.5 0.625C3.70312 0.625 0.625 3.70312 0.625 7.5C0.625 11.2969 3.70312 14.375 7.5 14.375C11.2969 14.375 14.375 11.2969 14.375 7.5C14.375 3.70312 11.2969 0.625 7.5 0.625ZM1.875 7.5C1.875 8.80625 2.32062 10.0087 3.0675 10.9637C3.59202 10.2749 4.26869 9.71672 5.04465 9.3327C5.8206 8.94867 6.67484 8.74925 7.54062 8.75C8.39521 8.74919 9.2387 8.94345 10.0068 9.31799C10.775 9.69252 11.4475 10.2375 11.9731 10.9113C12.5147 10.201 12.8793 9.37201 13.0368 8.49287C13.1943 7.61373 13.1403 6.70971 12.8791 5.85562C12.6178 5.00152 12.157 4.2219 11.5347 3.58127C10.9123 2.94064 10.1464 2.45741 9.30024 2.17157C8.45407 1.88572 7.552 1.80548 6.66866 1.93748C5.78533 2.06948 4.94612 2.40993 4.22048 2.93066C3.49484 3.45138 2.90363 4.13742 2.49577 4.932C2.0879 5.72658 1.87511 6.60686 1.875 7.5ZM7.5 13.125C6.20872 13.1269 4.95642 12.6827 3.955 11.8675C4.35808 11.2905 4.89459 10.8193 5.51887 10.4942C6.14315 10.169 6.83674 9.9995 7.54062 10C8.23573 9.99944 8.92093 10.1647 9.53933 10.4821C10.1577 10.7995 10.6915 11.2599 11.0962 11.825C10.0871 12.6667 8.81411 13.1268 7.5 13.125Z" fill="#363638"/>

</svg>