<svg width="24" height="24" viewBox="0 0 32 32" fill="none" xmlns="http://www.w3.org/2000/svg">
  <path fill-rule="evenodd" clip-rule="evenodd" d="M7.26665 6.16396C9.32932 3.96529 12.32 2.66663 16.0227 2.66663C22.1093 2.66663 26.1453 6.17463 27.4227 11.036C27.5125 11.3781 27.4627 11.7419 27.2843 12.0473C27.1059 12.3528 26.8134 12.5748 26.4713 12.6646C26.1292 12.7544 25.7654 12.7047 25.46 12.5263C25.1545 12.3479 24.9325 12.0554 24.8427 11.7133C23.8733 8.02929 20.9013 5.33329 16.0213 5.33329C12.9733 5.33329 10.7147 6.38529 9.21332 7.98663C7.69865 9.60263 6.85465 11.884 6.85465 14.5V17.5C6.85465 20.116 7.69865 22.3973 9.21332 24.012C10.7147 25.616 12.9733 26.6666 16.0213 26.6666C18.228 26.6666 19.9787 26.1546 21.3227 25.3266C22.676 24.4933 23.4827 23.388 23.7093 22.12C23.9693 20.6586 23.6493 19.656 23.0987 18.932C22.7961 18.5429 22.429 18.2087 22.0133 17.944C21.8333 18.9426 21.512 19.8853 21.0267 20.624C19.2373 23.3426 15.816 23.576 13.56 22.676C12.3387 22.1893 11.292 20.8573 10.9667 19.4293C10.7708 18.6107 10.8365 17.7512 11.1547 16.972C11.508 16.124 12.1627 15.4013 13.0947 14.852C14.0173 14.3066 15.388 14.056 16.7467 14.0186C17.5653 13.996 18.4533 14.0506 19.3467 14.196C19.16 13.3293 18.844 12.6826 18.488 12.3506C17.8427 11.7506 16.7733 11.328 15.7013 11.3346C14.6653 11.3426 13.7867 11.7413 13.2613 12.5813C13.0739 12.8812 12.775 13.0943 12.4305 13.1738C12.0859 13.2533 11.7239 13.1927 11.424 13.0053C11.1241 12.8179 10.911 12.519 10.8315 12.1744C10.7519 11.8299 10.8126 11.4678 11 11.168C12.116 9.38396 13.9547 8.68129 15.684 8.66796C17.3773 8.65596 19.1213 9.29729 20.3053 10.3986C21.5027 11.5133 22.0173 13.3413 22.1507 15.004C23.316 15.512 24.4173 16.2573 25.224 17.32C26.2653 18.6933 26.7133 20.464 26.3347 22.588C25.948 24.7533 24.5813 26.452 22.7213 27.5973C20.8973 28.72 18.6467 29.3333 16.0213 29.3333C12.32 29.3333 9.32799 28.0346 7.26799 25.836C5.21999 23.652 4.18799 20.684 4.18799 17.5V14.5C4.18799 11.316 5.21999 8.34796 7.26799 6.16396H7.26665ZM19.4667 16.9333C18.5971 16.7451 17.7081 16.6618 16.8187 16.6853C15.6307 16.7173 14.7973 16.9426 14.4493 17.148C13.9373 17.4506 13.716 17.7586 13.6173 17.9973C13.5122 18.2649 13.4945 18.559 13.5667 18.8373C13.7293 19.552 14.2667 20.088 14.548 20.1986C16.0493 20.7986 17.928 20.4813 18.7987 19.1586C19.112 18.6813 19.3613 17.8786 19.4653 16.9333H19.4667Z" fill="rgba(255, 255, 255, 0.8)"/>
</svg>