<svg width="30" height="18" viewBox="0 0 30 18" fill="none" xmlns="http://www.w3.org/2000/svg">
<path d="M23.75 15.25V17.75H8.75V15.25C8.75 15.25 8.75 10.25 16.25 10.25C23.75 10.25 23.75 15.25 23.75 15.25ZM20 4C20 3.25832 19.7801 2.5333 19.368 1.91661C18.956 1.29993 18.3703 0.819282 17.6851 0.535453C16.9998 0.251625 16.2458 0.177362 15.5184 0.322057C14.791 0.466751 14.1228 0.823904 13.5983 1.34835C13.0739 1.8728 12.7167 2.54098 12.5721 3.26841C12.4274 3.99584 12.5016 4.74984 12.7855 5.43506C13.0693 6.12029 13.5499 6.70596 14.1666 7.11801C14.7833 7.53007 15.5083 7.75 16.25 7.75C17.2446 7.75 18.1984 7.35491 18.9017 6.65165C19.6049 5.94839 20 4.99456 20 4ZM24 10.325C24.6833 10.9554 25.2342 11.7156 25.6205 12.5611C26.0068 13.4067 26.2208 14.3208 26.25 15.25V17.75H30V15.25C30 15.25 30 10.9375 24 10.325ZM22.5 0.250001C22.1223 0.250227 21.747 0.309268 21.3875 0.425001C22.1188 1.47371 22.5109 2.72148 22.5109 4C22.5109 5.27852 22.1188 6.52629 21.3875 7.575C21.747 7.69073 22.1223 7.74978 22.5 7.75C23.4946 7.75 24.4484 7.35491 25.1517 6.65165C25.8549 5.94839 26.25 4.99456 26.25 4C26.25 3.00544 25.8549 2.05161 25.1517 1.34835C24.4484 0.64509 23.4946 0.250001 22.5 0.250001ZM10 6.5H6.25V2.75H3.75V6.5H0V9H3.75V12.75H6.25V9H10V6.5Z" fill="white"/>
</svg>
